<?xml version="1.0" encoding="iso-8859-1"?><!-- Generator: Adobe Illustrator 22.1.0, SVG Export Plug-In . SVG Version: 6.00 Build 0)  --><svg xmlns="http://www.w3.org/2000/svg" xmlns:xlink="http://www.w3.org/1999/xlink" viewBox="0 0 24 24" width="48px" height="48px"><g id="Rounded"><path d="M20,4H4C2.895,4,2,4.895,2,6v12c0,1.105,0.895,2,2,2h16c1.105,0,2-0.895,2-2V6C22,4.895,21.105,4,20,4z M5.628,16.193l2.49-3.202c0.196-0.252,0.575-0.258,0.779-0.012L11,15.51l3.098-3.992c0.202-0.261,0.597-0.257,0.795,0.007L18.4,16.2c0.247,0.33,0.012,0.8-0.4,0.8H6.022C5.606,17,5.372,16.521,5.628,16.193z"/></g></svg>