<?xml version="1.0" encoding="utf-8"?>
<!-- Svg Vector Icons : http://www.onlinewebfonts.com/icon -->
<!DOCTYPE svg PUBLIC "-//W3C//DTD SVG 1.1//EN" "http://www.w3.org/Graphics/SVG/1.1/DTD/svg11.dtd">
<svg version="1.1" xmlns="http://www.w3.org/2000/svg" xmlns:xlink="http://www.w3.org/1999/xlink" x="0px" y="0px" viewBox="0 0 1000 1000" enable-background="new 0 0 1000 1000" xml:space="preserve">
<metadata> Svg Vector Icons : http://www.onlinewebfonts.com/icon </metadata>
<g><path d="M983.5,484.2L849.8,350.6c-4-4-9.6-6.5-15.8-6.5c-12.3,0-22.3,10-22.3,22.3c0,6.2,2.5,11.7,6.5,15.8l95.6,95.6H522.3V86.1l95.6,95.6c4,4.1,9.6,6.5,15.8,6.5c12.3,0,22.3-10,22.3-22.3c0-6.1-2.5-11.7-6.5-15.8L515.7,16.5c-4-4-9.6-6.5-15.7-6.5c-6.1,0-11.7,2.5-15.8,6.5L350.6,150.2c-4.1,4-6.5,9.6-6.5,15.8c0,12.3,10,22.3,22.3,22.3c6.2,0,11.7-2.5,15.8-6.5l95.6-95.6v391.7H86l95.6-95.6c4.1-4,6.5-9.6,6.5-15.8c0-12.3-10-22.3-22.3-22.3c-6.1,0-11.7,2.5-15.8,6.5L16.5,484.2c-4,4-6.5,9.6-6.5,15.8c0,6.2,2.5,11.7,6.5,15.8l133.6,133.6c4,4,9.6,6.5,15.8,6.5c12.3,0,22.3-10,22.3-22.3c0-6.1-2.5-11.7-6.5-15.8L86,522.3h391.7v391.7l-95.6-95.6c-4-4-9.6-6.5-15.8-6.5c-12.3,0-22.3,10-22.3,22.3c0,6.2,2.5,11.7,6.5,15.8l133.6,133.7c4,4.1,9.6,6.5,15.8,6.5c6.2,0,11.7-2.5,15.8-6.5l133.7-133.7c4-4,6.5-9.6,6.5-15.8c0-12.3-10-22.3-22.3-22.3c-6.1,0-11.7,2.5-15.8,6.5l-95.6,95.6V522.3H914l-95.6,95.6c-4,4.1-6.5,9.6-6.5,15.8c0,12.3,10,22.3,22.3,22.3c6.2,0,11.7-2.5,15.8-6.5l133.7-133.6c4-4,6.5-9.6,6.5-15.8C990,493.9,987.5,488.3,983.5,484.2"/></g>
</svg>