<?xml version="1.0" encoding="utf-8"?>
<!-- Svg Vector Icons : http://www.onlinewebfonts.com/icon -->
<!DOCTYPE svg PUBLIC "-//W3C//DTD SVG 1.1//EN" "http://www.w3.org/Graphics/SVG/1.1/DTD/svg11.dtd">
<svg version="1.1" xmlns="http://www.w3.org/2000/svg" xmlns:xlink="http://www.w3.org/1999/xlink" x="0px" y="0px" viewBox="0 0 1000 1000" enable-background="new 0 0 1000 1000" xml:space="preserve">
<metadata> Svg Vector Icons : http://www.onlinewebfonts.com/icon </metadata>
<g><g transform="translate(0.000000,127.000000) scale(0.100000,-0.100000)"><path d="M6744.7-201.1C6619.5-326.3,6532-589.1,6532-789.3c0-337.9-12.6-337.9-225.3-150.2c-312.8,275.3-688.3,262.8-951-25c-200.2-225.3-212.8-337.9-25-1852C5606-5056.4,5630.9-4906.3,5030.3-4606c-876,450.4-1376.5,287.8-1376.5-438c0-325.3,150.2-538.1,788.3-1138.7C5280.7-6996,5931.3-7484.1,6144-7484.1c275.3,0,125.1,362.9-262.9,638.1c-488,337.9-1851.9,1614.3-1851.9,1727c0,37.5,50,150.1,100.1,237.7c87.6,125.1,262.8,87.6,788.4-162.7c850.9-387.9,1113.8-400.5,1113.8-25.1c0,150.2-87.7,963.6-187.7,1777c-225.4,1864.5-237.8,2064.7-12.6,2064.7c125.1,0,237.7-350.4,375.4-1151.3c300.3-1676.8,312.9-1726.9,513.1-1726.9c150.1,0,187.7,325.4,212.6,1789.4c37.6,1476.6,62.6,1777,225.3,1777c162.5,0,187.7-300.3,225.1-1839.5c25.2-1489,62.6-1852,212.9-1852c112.6,0,187.7,212.8,237.7,663.2c212.8,2039.8,275.3,2390.1,438,2440.1c137.7,50.1,162.7-212.7,87.6-1576.7c-62.6-1076.2-50.1-1651.8,37.5-1701.9c175.1-112.6,325.4,225.3,513.1,1151.3c162.5,788.4,312.9,1026.1,500.5,825.9c137.6-150.1-187.7-2590.3-500.5-3854.2c-237.8-938.5-237.8-1201.3,0-1201.3c250.3,0,800.8,2415.1,951,4229.6c75,838.4,50.1,1013.6-137.6,1201.3c-137.7,137.7-338,200.2-525.7,162.7c-250.3-50.1-287.7,0-287.7,312.8c0,600.6-200.3,850.9-688.2,850.9c-300.4,0-438,62.6-438,175.2c0,200.2-463.2,575.6-700.8,575.6C7007.4,24.1,6857.3-76,6744.7-201.1z"/><path d="M1839.4-601.6c-362.9-375.4-362.9-387.9-100.1-450.5c175.2-50,287.8-187.7,312.8-412.9c50-475.6,400.4-425.4,450.4,75.1c25,275.3,87.6,375.4,212.8,337.8c300.3-125.1,337.9,212.8,50,525.6C2402.5-138.6,2277.4-151.1,1839.4-601.6z"/><path d="M462.9-1978.1L100-2353.5l400.4-412.9c337.9-325.4,425.5-362.9,525.6-212.8c62.6,100.1,75.1,225.2,50,275.3c-37.5,50,112.6,100.1,312.8,100.1c300.3,0,387.9,50,387.9,250.3c0,200.2-87.6,250.3-375.4,250.3c-212.8,0-362.9,37.5-362.9,100.1C1126.1-1502.6,925.9-1490.1,462.9-1978.1z"/><path d="M3566.2-1827.9c-37.5-162.7-187.7-275.3-400.4-300.4c-438-50-438-400.4,0-450.4c212.7-25,362.9-137.7,400.4-300.4c75.1-250.3,100.1-250.3,350.4-75c625.7,412.9,625.7,788.3,0,1201.3C3666.4-1577.6,3641.3-1577.6,3566.2-1827.9z"/><path d="M2177.3-2879.1c-87.6-87.6-150.2-287.8-150.2-450.4c0-162.7-50-262.8-112.6-225.3c-62.6,37.6-175.2,0-250.3-87.6c-100.1-125.1-37.6-250.3,237.7-525.6l375.4-362.9l387.9,388c387.9,375.4,400.4,750.8,37.5,613.2c-125.1-50-175.2,37.5-175.2,300.3C2527.6-2816.5,2377.4-2678.9,2177.3-2879.1z"/></g></g>
</svg>